<svg width="21" height="27" viewBox="0 0 21 27" fill="none" xmlns="http://www.w3.org/2000/svg">
<path d="M9.436 24.7165L9.77562 24.711C10.555 24.6976 11.2991 24.6011 12.0075 24.4204L12.0078 24.4191C12.7057 24.2365 13.3898 23.9527 14.0593 23.5662C14.7289 23.1796 15.3195 22.7275 15.8322 22.2111L15.8327 22.2119C16.3435 21.6887 16.7967 21.0939 17.1927 20.4288L17.3667 20.1366L18.0196 21.2673L17.9668 21.3654C17.5823 22.0785 17.1306 22.7166 16.6107 23.2783L16.609 23.2793C16.0835 23.8378 15.4593 24.3253 14.738 24.7417C14.0164 25.1583 13.2803 25.4525 12.5303 25.6228L12.2473 25.6836C11.5843 25.8133 10.9018 25.8679 10.2005 25.8493L10.0883 25.8464L9.436 24.7165Z" fill="black" stroke="black" stroke-width="0.4"/>
<path d="M18.3896 19.2924L18.5052 18.973C18.7699 18.2399 18.9445 17.5101 19.0277 16.7838L19.0266 16.783C19.1043 16.0659 19.0824 15.3255 18.9594 14.5623C18.8363 13.799 18.624 13.0862 18.3237 12.4233L18.3246 12.4232C18.0174 11.7596 17.6227 11.1244 17.142 10.5178L16.9309 10.2511L18.2199 10.0433L18.2928 10.1275C18.8225 10.7405 19.2581 11.3897 19.598 12.0754L19.5983 12.0773C19.9334 12.7672 20.1669 13.524 20.2995 14.3462C20.4321 15.1689 20.4452 15.9614 20.3375 16.723L20.2936 17.009C20.1789 17.6749 19.9871 18.3321 19.7202 18.9809L19.6776 19.0847L18.3896 19.2924Z" fill="black" stroke="black" stroke-width="0.4"/>
<path d="M6.24911 12.2502L6.32137 12.1401C6.61924 11.6854 6.92714 11.2324 7.24472 10.7818L7.24526 10.7826C7.50195 10.4109 7.70091 10.1322 7.84254 9.95011L8.41111 9.11324L8.4141 9.10892L11.5285 4.72795L6.20542 5.82556L4.85656 6.1067C4.55851 6.16882 4.2703 6.23235 3.99216 6.29835L3.98674 6.30078L3.9862 6.29996L2.63734 6.5811L2.50484 6.60927L1.74929 5.471L2.03462 5.40819C2.49728 5.30635 2.96975 5.20632 3.45204 5.1085C3.93351 5.01085 4.29862 4.94036 4.54589 4.897C4.78584 4.84178 5.13792 4.77084 5.6002 4.68244L12.7552 3.23505L12.8861 3.20795L13.4839 4.10865L13.407 4.22063L9.24806 10.1799L9.24589 10.1837C9.17651 10.2797 9.11305 10.3713 9.05574 10.4588L9.05166 10.465C8.73536 10.9138 8.49844 11.2508 8.34027 11.4752C8.18282 11.6986 8.03083 11.9181 7.88528 12.1335L7.88338 12.136C7.72519 12.3604 7.48755 12.6978 7.17117 13.1467L7.0025 13.3852L6.24911 12.2502Z" fill="black" stroke="black" stroke-width="0.4"/>
<path d="M1.61495 17.2946L1.70678 17.6217C1.91828 18.3719 2.2011 19.0669 2.55619 19.7059L2.55757 19.7059C2.91182 20.3343 3.36054 20.9235 3.90484 21.4726C4.44916 22.0216 5.03675 22.4776 5.66676 22.8418L5.66606 22.8425C6.30214 23.2033 6.99278 23.49 7.73676 23.7035L8.06367 23.7975L7.13648 24.7167L7.02818 24.6907C6.24066 24.5005 5.50857 24.2262 4.83303 23.8665L4.83165 23.8651C4.15771 23.4992 3.52726 23.0197 2.9409 22.4283C2.35425 21.8365 1.88229 21.1997 1.52657 20.5177L1.39578 20.2596C1.10148 19.6514 0.874872 19.0053 0.71423 18.3225L0.688457 18.2132L1.61495 17.2946Z" fill="black" stroke="black" stroke-width="0.4"/>
<path d="M7.60361 7.86265L7.29888 8.0127C6.59998 8.35778 5.96837 8.76289 5.40504 9.22881L5.40529 9.23017C4.85228 9.69332 4.35496 10.2422 3.91469 10.8777C3.47445 11.5132 3.1335 12.1742 2.89055 12.8602L2.88975 12.8597C2.65137 13.551 2.4957 14.2824 2.42179 15.0529L2.3892 15.3914L1.31592 14.6479L1.32169 14.5367C1.36474 13.7277 1.5006 12.9578 1.73077 12.2278L1.73188 12.2262C1.96845 11.4968 2.3246 10.7893 2.79886 10.1047C3.27338 9.41976 3.81325 8.83932 4.4187 8.36494L4.64857 8.18917C5.19266 7.78865 5.78645 7.44776 6.42846 7.16499L6.53113 7.11968L7.60361 7.86265Z" fill="black" stroke="black" stroke-width="0.4"/>
</svg>
