<?xml version="1.0" encoding="UTF-8"?>
<svg id="Ebene_2" data-name="Ebene 2" xmlns="http://www.w3.org/2000/svg" viewBox="0 0 10.75 16.76">
  <defs>
    <style>
      .cls-1 {
        fill: #1d1d1b;
      }
    </style>
  </defs>
  <g id="Ebene_1-2" data-name="Ebene 1">
    <path class="cls-1" d="M10.06,14.29c-.46.78-1.1,1.39-1.91,1.82-.81.44-1.73.65-2.75.65s-1.96-.22-2.78-.65c-.82-.43-1.47-1.04-1.93-1.82-.46-.78-.69-1.66-.69-2.64s.23-1.88.69-2.65c.46-.78,1.1-1.39,1.93-1.82.83-.44,1.75-.65,2.78-.65s1.94.22,2.75.65,1.45,1.04,1.91,1.82c.46.78.69,1.67.69,2.65s-.23,1.86-.69,2.64ZM9.1,9.66c-.35-.58-.85-1.04-1.5-1.36-.65-.32-1.38-.48-2.2-.48s-1.57.16-2.22.48c-.65.32-1.15.77-1.51,1.36-.36.58-.54,1.25-.54,1.99s.18,1.4.54,1.97c.36.58.86,1.02,1.51,1.35.65.32,1.39.49,2.22.49s1.55-.16,2.2-.49c.65-.33,1.15-.77,1.5-1.35.36-.58.53-1.23.53-1.97s-.18-1.4-.53-1.99Z"/>
    <path class="cls-1" d="M2.14,1.81c.33-.57.77-1.02,1.34-1.33.57-.32,1.21-.48,1.92-.48s1.33.16,1.9.47,1.01.75,1.33,1.32c.32.56.48,1.21.48,1.94,0,.37-.04.72-.12,1.04-.08.33-.19.62-.34.88h-.98c.15-.3.26-.59.33-.86.07-.28.1-.57.1-.88,0-.53-.11-1-.34-1.4-.22-.41-.54-.72-.94-.94-.4-.22-.88-.33-1.42-.33s-1.02.11-1.43.34-.74.55-.97.96-.35.88-.35,1.41c0,.3.04.6.12.9.08.3.21.62.38.95h-.96c-.18-.29-.31-.61-.4-.96-.09-.35-.14-.71-.14-1.07,0-.74.16-1.4.49-1.96Z"/>
  </g>
</svg>